<?xml version="1.0" standalone="no"?><!DOCTYPE svg PUBLIC "-//W3C//DTD SVG 1.1//EN" "http://www.w3.org/Graphics/SVG/1.1/DTD/svg11.dtd"><svg t="1566023658771" class="icon" viewBox="0 0 1024 1024" version="1.1" xmlns="http://www.w3.org/2000/svg" p-id="3901" width="32" height="32" xmlns:xlink="http://www.w3.org/1999/xlink"><defs><style type="text/css"></style></defs><path d="M59.24365 342.457197c0.963311-2.76952 1.926623-5.418627 2.889934-8.188147 7.465663-22.276576 26.972719-37.328316 50.814676-38.893697 21.674506-1.565381 43.349012 11.078081 53.463781 31.066792 10.355597 20.349953 7.465663 44.312324-7.586077 62.133584-1.806209 1.926623-3.492004 3.853246-5.418626 6.261524 42.024459 25.768579 83.80809 51.175917 125.350893 76.703669 15.774224 9.753528 31.668862 19.507056 47.443086 28.899341 9.031044 5.298213 16.015052 3.732832 20.831609-5.057384 47.804327-87.059266 95.729069-174.35936 143.894637-262.381938-20.831609-10.596425-34.317968-26.731891-35.522107-50.814676-0.722484-16.737535 5.057385-31.187206 16.978363-42.98777 23.601129-22.999059 62.494826-20.831609 83.206021 4.696143 23.841957 29.260583 15.172154 63.458137-22.637817 89.226717 12.28222 22.637817 24.805268 45.275635 37.328316 67.913452 34.799624 63.21731 69.35842 126.314205 104.037629 189.531515 7.947319 14.690499 13.125118 16.015052 27.333961 7.465663 53.70461-32.752587 107.409219-65.746002 161.113828-98.619003 2.528692-1.565381 4.936971-3.130762 7.826905-4.936971-11.078081-11.078081-18.182502-23.601129-18.904986-39.014111-1.565381-28.899341 18.302916-54.306679 46.238947-59.002822 29.140169-5.057385 55.992474 11.559737 64.662276 39.616181 0.60207 2.167451 1.565381 4.455315 2.287865 6.622765V362.445908c-9.151458 29.260583-27.93603 46.238946-60.086548 46.479774-1.204139 3.37159-2.287865 6.622766-3.371589 9.994356-31.428034 107.770461-62.856068 215.78175-94.284102 323.55221-4.094073 14.088429-9.031044 17.821261-23.239887 17.821261H241.068674c-15.172154 0-19.868297-3.492004-23.962371-17.821261-25.527752-87.420508-50.935089-175.081844-76.583255-262.622765-6.863594-23.601129-13.847601-47.202258-20.831609-71.044215-23.962371 0-42.144873-9.5127-53.463781-30.223895-2.76952-5.057385-4.455315-10.716839-6.622766-16.255879-0.361242-6.984008-0.361242-13.365945-0.361242-19.868297m0 0zM511.759172 816.406397h253.591722c22.637817 0 40.579492 16.015052 43.108184 37.44873 2.528692 21.674506-11.680151 41.422389-33.595484 46.238946-3.130762 0.722484-6.502352 0.963311-9.5127 0.963312H257.926623c-19.386642 0-35.522107-11.559737-41.181562-28.899342-5.900282-17.339605-0.361242-37.087488 15.051741-47.081844 7.947319-5.057385 18.543744-8.549389 27.93603-8.549388 84.169332-0.60207 168.097836-0.120414 252.02634-0.120414m0 0z" p-id="3902" fill="#0aa1ed"></path></svg>