<?xml version="1.0" standalone="no"?><!DOCTYPE svg PUBLIC "-//W3C//DTD SVG 1.1//EN" "http://www.w3.org/Graphics/SVG/1.1/DTD/svg11.dtd"><svg t="1566019467961" class="icon" viewBox="0 0 1024 1024" version="1.1" xmlns="http://www.w3.org/2000/svg" p-id="12223" width="32" height="32" xmlns:xlink="http://www.w3.org/1999/xlink"><defs><style type="text/css"></style></defs><path d="M1010.635803 248.192272a235.18673 235.18673 0 0 1-68.889462 166.655666l-1.561597 1.433597a234.367531 234.367531 0 0 1-164.838071 67.558265h-209.381981c-14.335971 0-25.907148-11.596777-25.907148-25.958348V248.192272a234.95633 234.95633 0 0 1 68.889462-166.527667l0.0512-0.0512-0.0512-0.0512a234.316331 234.316331 0 0 1 166.399667-69.017462 234.495531 234.495531 0 0 1 166.399668 69.017462 235.13553 235.13553 0 0 1 68.889462 166.630067z" fill="#3B97F6" p-id="12224"></path><path d="M538.828746 485.119798a38.195124 38.195124 0 0 1-11.263977-27.212746V248.192272a249.164302 249.164302 0 0 1 63.999872-166.374068l-0.2048-0.204799 8.729583-8.908782A248.498703 248.498703 0 0 1 775.346673 0.000768a245.964308 245.964308 0 0 1 175.05245 72.524655 249.497101 249.497101 0 0 1 72.729455 175.692449 246.834706 246.834706 0 0 1-72.550255 175.487649l-1.919996 1.791996a245.298709 245.298709 0 0 1-173.311654 70.886258h-209.356381a38.297523 38.297523 0 0 1-27.161546-11.263977z m82.790235-398.463203l-3.737593 3.788792a223.897152 223.897152 0 0 0-65.305469 157.746885v209.71478c0 7.193586 6.220788 13.465573 13.414373 13.465573h209.381981a220.594759 220.594759 0 0 0 156.057288-63.974272l1.868796-1.715196a221.618757 221.618757 0 0 0 64.870271-157.465285 224.383551 224.383551 0 0 0-65.22867-157.823685A221.234758 221.234758 0 0 0 775.397873 25.037518a223.359553 223.359553 0 0 0-153.778892 61.619077z" fill="#E2E4E5" p-id="12225"></path><path d="M82.253659 414.719939A234.85393 234.85393 0 0 1 13.364197 248.192272a235.21233 235.21233 0 0 1 67.404665-165.09407l1.459198-1.587197A234.265131 234.265131 0 0 1 248.602127 12.493543a234.418731 234.418731 0 0 1 166.374067 69.017462 235.10993 235.10993 0 0 1 68.915062 166.655667v209.71478c0 14.335971-11.673577 25.958348-25.907148 25.958348H248.602127a234.085932 234.085932 0 0 1-166.246068-69.017462l-0.1024-0.102399z" fill="#EC932A" p-id="12226"></path><path d="M73.754476 423.91032l-0.230399-0.230399A246.015508 246.015508 0 0 1 0.871422 248.166672a246.117908 246.117908 0 0 1 71.014258-173.823653C119.450385 26.419915 183.322257-0.076032 248.627727 0.000768a248.575503 248.575503 0 0 1 174.82205 72.319855 249.727501 249.727501 0 0 1 72.959854 175.871649v209.71478c0 21.196758-17.228766 38.451123-38.425523 38.451123H248.602127a245.580309 245.580309 0 0 1-174.847651-72.447855zM406.169812 90.419787A223.743553 223.743553 0 0 0 248.602127 25.011918a223.154754 223.154754 0 0 0-157.516485 65.331069C48.461727 133.8373 25.780172 189.337989 25.856972 248.166672a220.978758 220.978758 0 0 0 65.15187 157.618884l0.435199 0.4352a220.876358 220.876358 0 0 0 157.183686 65.151869h209.381981a13.465573 13.465573 0 0 0 13.414373-13.465573V248.192272a224.255551 224.255551 0 0 0-65.254269-157.772485z" fill="#E2E4E5" p-id="12227"></path><path d="M90.420043 934.270899a220.313159 220.313159 0 0 1-64.94707-157.106885 223.359553 223.359553 0 0 1 65.331069-157.516485 221.311557 221.311557 0 0 1 157.849285-65.27987h209.74038a13.363173 13.363173 0 0 1 13.414373 13.439973v209.356382a220.850758 220.850758 0 0 1-65.356669 157.388485 223.999552 223.999552 0 0 1-157.772484 65.356669 222.181956 222.181956 0 0 1-156.364488-63.846272l-2.252795-2.073596 0.358399 0.281599z" fill="#F27151" p-id="12228"></path><path d="M476.697671 549.452469l-17.382366 18.329563v209.356382a208.562783 208.562783 0 0 1-61.823876 148.684502 211.276377 211.276377 0 0 1-148.838102 61.567877c-55.500689 0-107.929384-21.401557-148.300504-60.953478a55.833488 55.833488 0 0 0-1.254397-1.151998 210.738779 210.738779 0 0 1-61.132678-148.172503 210.764378 210.764378 0 0 1 61.695877-148.684503 208.869982 208.869982 0 0 1 149.017302-61.593477h209.74038c0.128 0 0.358399 0 0.614399 0.2816l17.663965-17.663965m0 0a25.855948 25.855948 0 0 0-18.303964-7.603185H248.678927a235.263529 235.263529 0 0 0-166.681267 68.915062 234.418731 234.418731 0 0 0-69.017462 166.374068 234.444331 234.444331 0 0 0 68.633463 165.990068l0.383999 0.383999 1.587197 1.459197a235.21233 235.21233 0 0 0 165.09407 67.404665 234.90513 234.90513 0 0 0 166.502067-68.889462l0.102399-0.1024a234.085932 234.085932 0 0 0 69.017462-166.246067v-209.356382c0-7.142386-2.892794-13.644773-7.603184-18.329563z" fill="#E2E4E5" p-id="12229"></path><path d="M941.746341 609.12595a235.18673 235.18673 0 0 1 68.889462 166.655666 235.263529 235.263529 0 0 1-68.889462 166.681267l-0.0512-0.0768-0.0512 0.0768a234.085932 234.085932 0 0 1-166.246068 69.017462 234.239532 234.239532 0 0 1-166.246067-69.017462l-0.1536-0.1792a234.82833 234.82833 0 0 1-68.889462-166.502067v-209.71478c0-14.310371 11.596777-25.932748 25.907148-25.958348h209.356381a234.572331 234.572331 0 0 1 166.374068 69.017462z" fill="#EC932A" p-id="12230"></path><path d="M600.703823 951.730065l-0.4352-0.4352a246.015508 246.015508 0 0 1-72.678254-175.513249v-209.71478c0-21.171158 17.203166-38.425523 38.399923-38.451123h209.356381a248.703503 248.703503 0 0 1 174.898851 72.371055 246.322707 246.322707 0 0 1 72.883054 175.846048 246.860306 246.860306 0 0 1-72.550255 175.487649l-10.547179 10.572779-0.460799-0.639999a248.114704 248.114704 0 0 1-164.223672 62.771075 245.22191 245.22191 0 0 1-174.64285-72.294255z m332.210535-333.772133a223.871552 223.871552 0 0 0-157.542085-65.356669H566.015892a13.465573 13.465573 0 0 0-13.414373 13.465573v209.74038a220.927558 220.927558 0 0 0 65.151869 157.567685l-8.166383 9.523181 8.831982-8.831982a220.287559 220.287559 0 0 0 156.978886 64.94707 223.205954 223.205954 0 0 0 157.388485-65.356669l10.23998-14.694371 1.305597 2.380795a221.797956 221.797956 0 0 0 53.836693-145.535709 221.516357 221.516357 0 0 0-65.25427-157.849284z" fill="#E2E4E5" p-id="12231"></path></svg>