<?xml version="1.0" standalone="no"?><!DOCTYPE svg PUBLIC "-//W3C//DTD SVG 1.1//EN" "http://www.w3.org/Graphics/SVG/1.1/DTD/svg11.dtd"><svg t="1566021508147" class="icon" viewBox="0 0 1024 1024" version="1.1" xmlns="http://www.w3.org/2000/svg" p-id="2282" width="32" height="32" xmlns:xlink="http://www.w3.org/1999/xlink"><defs><style type="text/css"></style></defs><path d="M772.2 288.4C719.2 195.8 619.4 137 512 137c-107.6 0-207.2 58.8-260.2 151.4-64.4 8.2-114.4 63.4-114.4 130 0 53.6 31.8 99 79.8 119.4l77.6 349.2h434.8l77.4-348.6c47.4-19.8 79.8-65.8 79.8-119.8 0-66.8-50.2-122-114.6-130.2zM669.4 812H354.6l-58.2-262.4h431.2L669.4 812z" p-id="2283" fill="#e73018"></path><path d="M437 774.6c20.6 0 37.4-16.8 37.4-37.4v-112.4c0-20.8-16.8-37.4-37.4-37.4-20.6 0-37.4 16.8-37.4 37.4v112.4c0 20.6 16.8 37.4 37.4 37.4zM587 774.6c20.6 0 37.4-16.8 37.4-37.4v-112.4c0-20.8-16.8-37.4-37.4-37.4-20.6 0-37.4 16.8-37.4 37.4v112.4c-0.2 20.6 16.6 37.4 37.4 37.4z" p-id="2284" fill="#e73018"></path></svg>