<?xml version="1.0" standalone="no"?><!DOCTYPE svg PUBLIC "-//W3C//DTD SVG 1.1//EN" "http://www.w3.org/Graphics/SVG/1.1/DTD/svg11.dtd"><svg t="1566023788386" class="icon" viewBox="0 0 1126 1024" version="1.1" xmlns="http://www.w3.org/2000/svg" p-id="5590" width="35.1875" height="32" xmlns:xlink="http://www.w3.org/1999/xlink"><defs><style type="text/css"></style></defs><path d="M1115.276 327.784c0-0.665-0.256-1.177-0.256-1.791a32.814 32.814 0 0 0-1.997-6.86l-95.37-239.068C1001.27 30.869 955.708 0 898.424 0H230.52c-56.056 0-99.825 30.203-115.49 77.71L12.696 321.488c-0.359 1.536-1.127 3.583-1.536 5.733A229.342 229.342 0 0 0 0 397.713c0 83.444 45.356 159.567 118.254 198.729 29.948 16.228 65.27 24.47 104.945 24.47h0.307a222.175 222.175 0 0 0 170.47-80.116 221.15 221.15 0 0 0 169.498 79.86 220.178 220.178 0 0 0 168.679-80.065 221.15 221.15 0 0 0 170.982 79.86c40.595-0.307 76.43-8.754 106.685-25.494a225.81 225.81 0 0 0 105.456-267.224z m-236.509 39.777H229.086a40.647 40.647 0 0 1-40.596-40.954c0-22.678 18.122-40.954 40.596-40.954h649.733c22.524 0 40.595 18.276 40.595 40.954s-18.224 40.954-40.749 40.954z m163.253 327.528c0-22.73-18.122-40.954-40.596-40.954a37.729 37.729 0 0 0-11.825 2.407 248.18 248.18 0 0 1-97.522 16.995c-63.99-3.583-112.879-16.228-159.77-56.567a261.388 261.388 0 0 1-168.321 63.12c-63.735-0.358-123.323-16.433-169.805-56.516-46.892 40.34-106.736 59.843-170.47 59.843h-0.205c-38.906 0-60.868-7.474-96.293-20.681-0.87-0.359-2.048-0.615-3.072-1.126l-4.71-1.792s-5.938-1.126-8.958-1.126a40.851 40.851 0 0 0-40.595 40.953l0.255 219.36c0 57.744 46.74 104.841 104.074 104.841l764.097-0.358a104.944 104.944 0 0 0 103.92-104.944l-0.204-223.455z" p-id="5591" fill="#f4ea2a"></path></svg>