<?xml version="1.0" standalone="no"?><!DOCTYPE svg PUBLIC "-//W3C//DTD SVG 1.1//EN" "http://www.w3.org/Graphics/SVG/1.1/DTD/svg11.dtd"><svg t="1566024013393" class="icon" viewBox="0 0 1024 1024" version="1.1" xmlns="http://www.w3.org/2000/svg" p-id="6675" width="32" height="32" xmlns:xlink="http://www.w3.org/1999/xlink"><defs><style type="text/css"></style></defs><path d="M101.2 467c-8.7 13.6-16.2 27.4-21.3 37.2h151.5c-3.7-4.8-8.1-10.7-13.5-18-11.1-15.2-23.8-32.3-36.6-45.9-16.7-17.6-26.3-21.3-31.5-21.3-4.2 0-20.1 3.5-48.6 48zM822 504.2c6.1-1.8 10.7-3.3 14.2-4.5-12.7-12.4-42-36.9-76.9-61.9-49.7-35.6-89.4-56.9-106.1-56.9-24.1 0-65.3 51.2-92.6 85.1-14 17.5-24.3 30-32.5 38.2H822zM279 504.2h203.2c-4.4-3.7-9-8.1-14-12.9-22.2-21.1-49.9-47.3-87-47.3-41.3 0-75.6 33.9-98.3 56.3l-3.9 3.9z" fill="#ED6F00" p-id="6676"></path><path d="M858.4 524.2H73.9c2.6 99.1 44.2 189.9 117.8 256.7 36.5 33.1 79.2 59.1 127 77.1 48.7 18.4 100.6 27.7 154.1 27.7 197.5 0 350.5-123.7 380.5-307.8l1.4-8.4h95.1v-38h-91.5l0.1-7.3z" fill="#FFE632" p-id="6677"></path><path d="M878.5 511.5v-7.3h-16.8c0-0.3 0.1-0.6 0.1-0.9 0-4.5-2.4-8.4-9.5-15.7-4.5-4.6-10.7-10.3-18.4-17-16.2-13.9-37.3-30.5-57.9-45.5-73.1-53.1-107.1-64.2-122.7-64.3h-0.1c-33.7 0-73.3 49.2-108.2 92.6-13.6 16.9-32.2 40-38.5 42.7-4.3-0.3-16.4-11.8-24.5-19.4-23.5-22.3-55.7-52.8-100.8-52.8-49.6 0-88.9 38.9-112.4 62.1-5.1 5-11.1 11-14.8 13.8-4.6-4.7-13-16.2-20-25.7-24.6-33.5-55.3-75.3-84.2-75.3-19.3 0-40.7 18.7-65.4 57.2-12.5 19.5-22.3 38.7-26.9 48h-3.7v7.8l-4.3 9.2 4.4 1C56 627.7 100 724.6 178.2 795.6c38.4 34.8 83.3 62.1 133.4 81 51 19.2 105.2 29 161.2 29 50.4 0 98.9-7.8 144.2-23 44.6-15.1 85.1-37.1 120.6-65.5 35.7-28.6 65.4-63.1 88.2-102.5 22.1-38.1 37.5-80.1 45.8-125.1h98.1v-78h-91.2z m71.3 58h-95.1l-1.4 8.4c-30.1 184.1-183 307.8-380.5 307.8-53.5 0-105.4-9.3-154.1-27.7-47.8-18-90.5-44-127-77.1-73.6-66.8-115.2-157.6-117.8-256.7h784.5l-0.1 7.3h91.5v38zM181.2 440.2c12.9 13.6 25.5 30.8 36.6 45.9 5.4 7.4 9.8 13.3 13.5 18H79.9c5.1-9.8 12.6-23.5 21.3-37.2 28.5-44.5 44.4-48 48.5-48 5.3 0.1 14.9 3.8 31.5 21.3zM560.4 466c27.3-33.9 68.5-85.1 92.6-85.1 16.8 0 56.4 21.3 106.1 56.9 34.9 25 64.2 49.5 76.9 61.9-3.4 1.2-8 2.6-14.2 4.5H528c8.2-8.2 18.4-20.7 32.4-38.2z m-92.2 25.3c5 4.8 9.7 9.1 14 12.9H279c1.2-1.2 2.5-2.5 3.9-3.8 22.7-22.4 56.9-56.3 98.3-56.3 37-0.1 64.7 26.1 87 47.2zM342.5 371.9l14-14.3c-0.3-0.3-34.7-34.3-41.1-64.9-5.1-24.6 14.7-63.7 22.8-76.7l-17-10.6c-1.4 2.2-33.3 53.8-25.4 91.3 7.7 36.7 45.1 73.7 46.7 75.2zM453 371.9l14-14.3c-0.3-0.3-34.7-34.3-41.1-64.9-5.1-24.6 14.7-63.7 22.8-76.7l-8.5-5.3-8.5-5.3c-1.4 2.2-33.3 53.8-25.4 91.3 7.6 36.7 45.1 73.7 46.7 75.2z" fill="#820404" p-id="6678"></path><path d="M551.7 371.9l14-14.3c-0.3-0.3-34.7-34.3-41.1-64.9-5.1-24.6 14.7-63.7 22.8-76.7l-8.5-5.3-8.5-5.3c-1.4 2.2-33.3 53.8-25.4 91.3 7.7 36.7 45.1 73.7 46.7 75.2z" fill="#820404" p-id="6679"></path></svg>