<?xml version="1.0" standalone="no"?><!DOCTYPE svg PUBLIC "-//W3C//DTD SVG 1.1//EN" "http://www.w3.org/Graphics/SVG/1.1/DTD/svg11.dtd"><svg t="1566020789362" class="icon" viewBox="0 0 1024 1024" version="1.1" xmlns="http://www.w3.org/2000/svg" p-id="22879" width="32" height="32" xmlns:xlink="http://www.w3.org/1999/xlink"><defs><style type="text/css"></style></defs><path d="M652.8 473.6h75.264a314.624 314.624 0 0 0-75.264-163.584z" fill="#ffa500" p-id="22880"></path><path d="M512 0a512 512 0 1 0 512 512A512 512 0 0 0 512 0z m-12.8 422.4a102.4 102.4 0 0 1-76.8 98.816V780.8a25.6 25.6 0 0 1-51.2 0V521.216a102.4 102.4 0 0 1-76.8-98.816v-179.2h51.2v179.2a51.2 51.2 0 0 0 25.6 44.032V243.2h51.2v223.232a51.2 51.2 0 0 0 25.6-44.032v-179.2h51.2z m256 102.4h-102.4v256a25.6 25.6 0 0 1-51.2 0v-512a25.6 25.6 0 0 1 25.6-25.6c74.24 0 153.6 150.272 153.6 256a25.6 25.6 0 0 1-25.6 25.6z" fill="#ffa500" p-id="22881"></path></svg>